<svg width="16" height="16" viewBox="0 0 16 16" fill="none" xmlns="http://www.w3.org/2000/svg">
<path d="M5.06799 0.941394C4.49541 0.352869 3.55004 0.352869 2.97747 0.941394L1.03109 2.94198C0.690542 3.29201 0.5 3.7611 0.5 4.24947V14.0417C0.5 14.8471 1.15292 15.5 1.95833 15.5H4.66667V11.9583C4.66667 11.6132 4.94649 11.3333 5.29167 11.3333H7.375V4.07427C7.375 3.5859 7.18442 3.11681 6.84392 2.76678L5.06799 0.941394ZM8.625 4.07427V11.3333H10.7083C11.0535 11.3333 11.3333 11.6132 11.3333 11.9583V15.5H14.0417C14.8471 15.5 15.5 14.8471 15.5 14.0417V4.24947C15.5 3.7611 15.3094 3.29201 14.9689 2.94198L13.0225 0.941394C12.4499 0.352869 11.5046 0.352869 10.932 0.941394L9.15608 2.76678C8.81558 3.11681 8.625 3.5859 8.625 4.07427ZM8.625 12.5833V15.5H10.0833V12.5833H8.625ZM7.375 15.5V12.5833H5.91667V15.5H7.375ZM4.77083 5.5C4.77083 5.96024 4.39773 6.33334 3.9375 6.33334C3.47727 6.33334 3.10417 5.96024 3.10417 5.5C3.10417 5.03977 3.47727 4.66667 3.9375 4.66667C4.39773 4.66667 4.77083 5.03977 4.77083 5.5ZM12.0625 6.33334C11.6023 6.33334 11.2292 5.96024 11.2292 5.5C11.2292 5.03977 11.6023 4.66667 12.0625 4.66667C12.5227 4.66667 12.8958 5.03977 12.8958 5.5C12.8958 5.96024 12.5227 6.33334 12.0625 6.33334ZM4.77083 8.8305C4.77083 9.29075 4.39773 9.66384 3.9375 9.66384C3.47727 9.66384 3.10417 9.29075 3.10417 8.8305C3.10417 8.37025 3.47727 7.99717 3.9375 7.99717C4.39773 7.99717 4.77083 8.37025 4.77083 8.8305ZM12.0625 9.66384C11.6023 9.66384 11.2292 9.29075 11.2292 8.8305C11.2292 8.37025 11.6023 7.99717 12.0625 7.99717C12.5227 7.99717 12.8958 8.37025 12.8958 8.8305C12.8958 9.29075 12.5227 9.66384 12.0625 9.66384Z" fill="#737373"/>
</svg>
